<mxfile host="app.diagrams.net" modified="2024-07-01T07:23:52.113Z" agent="Mozilla/5.0 (Windows NT 10.0; Win64; x64) AppleWebKit/537.36 (KHTML, like Gecko) Chrome/115.0.0.0 Safari/537.36 OPR/101.0.0.0 (Edition Yx 05)" version="24.6.4" etag="xly8g8o0NjhuMztsl6hQ" type="github">
  <diagram name="Страница — 1" id="sxwSGCy16q-Ctlb3BZk7">
    <mxGraphModel>
      <root>
        <mxCell id="0" />
        <mxCell id="1" parent="0" />
      </root>
    </mxGraphModel>
  </diagram>
</mxfile>
